:SAMPLES-PER-SECOND 30
:FULLY-SPECIFIED
:DEGREES
1
root  3.02951 40.9738 -0.23258 -140.577 -88.007 136.232
RightUpLeg  3.20593 -8.95516 -4.92876
RightLeg  6.00588 -13.1579 3.43257
RightFoot  -3.74946 0.157332 -2.88867
RightToes  0.00048216 0.542163 -0.142577
Spine  4.1223 0.755085 -0.344977
Spine1  3.32032 0.980616 -0.271456
HEad  5.91851 -10.6959 -0.658077
LeftShoulder1  1.25868 -3.28881 -11.2896
LeftArm  -19.3317 15.4783 -10.1133
LeftForeArm  8.21114 -1.64517 -0.492421
LeftHand  -0.25398 0.0180481 5.50724
RightShoulder  0.95549 1.97813 10.3112
RightArm  -21.1475 -3.35653 5.29965
RightForeArm  4.04797 0.922531 2.3131
RightHand  -1.63311 5.68196 -17.3837
LeftUpLeg  5.1646 4.8391 1.83011
LeftLeg  2.00735 14.6678 -3.86621
LeftFoot  -2.74559 -0.113547 1.83423
LeftToes  1.06245e-005 4.65855e-005 -8.18504e-006
2
root  3.02882 40.9738 -0.226778 -140.991 -87.9839 136.634
RightUpLeg  3.20824 -8.96845 -4.95088
RightLeg  6.02527 -13.1079 3.43572
RightFoot  -3.7494 0.156728 -2.87925
RightToes  0.00048216 0.542163 -0.142577
Spine  4.14508 0.779615 -0.349915
Spine1  3.28952 0.998627 -0.235504
HEad  5.87629 -10.7415 -0.784506
LeftShoulder1  1.26785 -3.32343 -11.3342
LeftArm  -19.2849 15.4841 -10.0585
LeftForeArm  8.18699 -1.65054 -0.50835
LeftHand  -0.25398 0.0180481 5.50724
RightShoulder  0.955472 1.95193 10.2795
RightArm  -21.1567 -3.37658 5.31446
RightForeArm  4.42006 0.914402 2.28997
RightHand  -1.62705 5.79433 -17.1571
LeftUpLeg  5.18186 4.84049 1.81667
LeftLeg  2.00421 14.6971 -3.87152
LeftFoot  -2.74712 -0.115828 1.86969
LeftToes  1.06245e-005 4.65855e-005 -8.18504e-006
3
root  3.02485 40.9738 -0.215757 -141.948 -87.9477 137.56
RightUpLeg  3.23481 -8.97737 -4.97497
RightLeg  6.04512 -13.0346 3.43085
RightFoot  -3.74928 0.155309 -2.85715
RightToes  0.00048216 0.542163 -0.142577
Spine  4.18488 0.801022 -0.307837
Spine1  3.24126 1.02607 -0.254542
HEad  5.82006 -10.8012 -0.908888
LeftShoulder1  1.27249 -3.34647 -11.3432
LeftArm  -19.2311 15.4956 -9.989
LeftForeArm  8.14041 -1.67427 -0.531346
LeftHand  -0.25398 0.0180481 5.50724
RightShoulder  0.957791 1.95213 10.2935
RightArm  -21.1274 -3.41377 5.29288
RightForeArm  4.79099 0.895005 2.27463
RightHand  -1.62272 5.93862 -16.9063
LeftUpLeg  5.23475 4.84603 1.80646
LeftLeg  1.99269 14.7437 -3.88492
LeftFoot  -2.75573 -0.119228 1.92256
LeftToes  1.06245e-005 4.65855e-005 -8.18504e-006
4
root  3.01688 40.9738 -0.205199 -142.697 -87.9317 138.277
RightUpLeg  3.28267 -8.97752 -4.98495
RightLeg  6.03573 -13.0005 3.42385
RightFoot  -3.74912 0.153544 -2.82967
RightToes  0.00048216 0.542163 -0.142577
Spine  4.23136 0.798343 -0.244073
Spine1  3.17765 1.03917 -0.325462
HEad  5.78688 -10.8273 -0.909703
LeftShoulder1  1.26481 -3.33519 -11.2715
LeftArm  -19.2319 15.5196 -9.96282
LeftForeArm  8.09362 -1.73549 -0.538847
LeftHand  -0.25398 0.0180481 5.50724
RightShoulder  0.967072 1.98424 10.3834
RightArm  -21.0309 -3.4484 5.20251
RightForeArm  4.80907 0.869532 2.29747
RightHand  -1.60985 5.91936 -16.8045
LeftUpLeg  5.29272 4.85635 1.80869
LeftLeg  1.97949 14.762 -3.8981
LeftFoot  -2.77023 -0.120247 1.9384
LeftToes  1.06245e-005 4.65855e-005 -8.18504e-006
5
root  3.00828 40.9738 -0.197363 -142.832 -87.9328 138.415
RightUpLeg  3.30028 -8.97428 -4.99212
RightLeg  6.01875 -12.9996 3.42041
RightFoot  -3.74895 0.151645 -2.80008
RightToes  0.00048216 0.542163 -0.142577
Spine  4.25296 0.794364 -0.233983
Spine1  3.1064 1.03886 -0.346752
HEad  5.73533 -10.8115 -0.851268
LeftShoulder1  1.25994 -3.33256 -11.1782
LeftArm  -19.2697 15.558 -9.97736
LeftForeArm  8.10959 -1.7975 -0.52958
LeftHand  -0.25398 0.0180481 5.50724
RightShoulder  0.973142 1.99594 10.4646
RightArm  -20.933 -3.47069 5.10786
RightForeArm  4.71541 0.846495 2.32549
RightHand  -1.58775 5.78592 -16.7695
LeftUpLeg  5.30578 4.85663 1.80356
LeftLeg  1.9745 14.7641 -3.9025
LeftFoot  -2.77511 -0.119444 1.92592
LeftToes  1.06245e-005 4.65855e-005 -8.18504e-006
6
root  3.00122 40.9738 -0.190232 -142.779 -87.9248 138.401
RightUpLeg  3.26087 -8.97151 -5.00244
RightLeg  6.03023 -12.992 3.41385
RightFoot  -3.74943 0.15035 -2.77992
RightToes  0.00048216 0.542163 -0.142577
Spine  4.2316 0.812004 -0.283604
Spine1  3.03994 1.04395 -0.290123
HEad  5.65009 -10.7869 -0.82544
LeftShoulder1  1.26531 -3.37967 -11.1279
LeftArm  -19.2792 15.5982 -9.98927
LeftForeArm  8.20323 -1.80674 -0.51976
LeftHand  -0.25398 0.0180481 5.50724
RightShoulder  0.968395 1.96366 10.4839
RightArm  -20.8982 -3.4787 5.068
RightForeArm  4.79464 0.818298 2.32395
RightHand  -1.57698 5.73984 -16.7253
LeftUpLeg  5.27053 4.84973 1.78365
LeftLeg  1.97904 14.7852 -3.90649
LeftFoot  -2.77263 -0.119856 1.93232
LeftToes  1.06245e-005 4.65855e-005 -8.18504e-006
7
root  2.99412 40.9738 -0.181703 -143.125 -87.9062 138.786
RightUpLeg  3.21509 -8.96586 -5.00311
RightLeg  6.05003 -12.9765 3.39574
RightFoot  -3.74806 0.150411 -2.78087
RightToes  0.00048216 0.542163 -0.142577
Spine  4.19397 0.836111 -0.314174
Spine1  2.98066 1.05954 -0.246719
HEad  5.59294 -10.7867 -0.810379
LeftShoulder1  1.27784 -3.4547 -11.1093
LeftArm  -19.2358 15.6283 -9.97515
LeftForeArm  8.27322 -1.77491 -0.525626
LeftHand  -0.25398 0.0180481 5.50724
RightShoulder  0.96128 1.91772 10.5038
RightArm  -20.901 -3.46564 5.04654
RightForeArm  4.91113 0.787467 2.31142
RightHand  -1.59274 5.83614 -16.749
LeftUpLeg  5.24005 4.85313 1.77189
LeftLeg  1.97949 14.8147 -3.92128
LeftFoot  -2.78237 -0.121637 1.96001
LeftToes  1.06245e-005 4.65855e-005 -8.18504e-006
8
root  2.98462 40.9738 -0.172889 -143.82 -87.8946 139.501
RightUpLeg  3.21002 -8.94908 -4.99004
RightLeg  6.03797 -12.9727 3.3821
RightFoot  -3.73504 0.151009 -2.79017
RightToes  0.00048216 0.542163 -0.142577
Spine  4.15194 0.83914 -0.282156
Spine1  2.95087 1.07063 -0.282667
HEad  5.58972 -10.8071 -0.74297
LeftShoulder1  1.28276 -3.49364 -11.0748
LeftArm  -19.1831 15.6437 -9.96256
LeftForeArm  8.22706 -1.77127 -0.547526
LeftHand  -0.25398 0.0180481 5.50724
RightShoulder  0.959029 1.88819 10.5741
RightArm  -20.9097 -3.42746 5.00572
RightForeArm  4.84675 0.77532 2.31338
RightHand  -1.62581 5.9632 -16.9027
LeftUpLeg  5.24452 4.86726 1.78016
LeftLeg  1.96817 14.8253 -3.94025
LeftFoot  -2.80485 -0.122558 1.97435
LeftToes  1.06245e-005 4.65855e-005 -8.18504e-006
9
root  2.97318 40.9738 -0.166047 -144.426 -87.8866 140.132
RightUpLeg  3.21047 -8.9409 -4.98334
RightLeg  6.01355 -12.9649 3.38733
RightFoot  -3.72678 0.150672 -2.78492
RightToes  0.00048216 0.542163 -0.142577
Spine  4.06266 0.824631 -0.245835
Spine1  2.9958 1.06708 -0.33648
HEad  5.58055 -10.8347 -0.649814
LeftShoulder1  1.27502 -3.47131 -11.0166
LeftArm  -19.1723 15.6376 -9.99035
LeftForeArm  8.13186 -1.81127 -0.567247
LeftHand  -0.25398 0.0180481 5.50724
RightShoulder  0.957559 1.8737 10.6246
RightArm  -20.954 -3.38296 5.00049
RightForeArm  4.75758 0.791793 2.31085
RightHand  -1.65344 6.05268 -17.0523
LeftUpLeg  5.24892 4.87144 1.78359
LeftLeg  1.94726 14.837 -3.9482
LeftFoot  -2.81901 -0.122925 1.98005
LeftToes  1.06245e-005 4.65855e-005 -8.18504e-006
10
root  2.96205 40.9738 -0.161076 -144.694 -87.8671 140.443
RightUpLeg  3.17186 -8.94817 -4.99586
RightLeg  6.0294 -12.9334 3.3928
RightFoot  -3.74389 0.149298 -2.76353
RightToes  0.00048216 0.542163 -0.142577
Spine  3.91738 0.814384 -0.270738
Spine1  3.11065 1.05399 -0.321434
HEad  5.54322 -10.8766 -0.60446
LeftShoulder1  1.26501 -3.43593 -10.9596
LeftArm  -19.2208 15.614 -10.0615
LeftForeArm  8.12826 -1.82749 -0.558149
LeftHand  -0.25398 0.0180481 5.50724
RightShoulder  0.956162 1.86923 10.5886
RightArm  -21.032 -3.35899 5.07054
RightForeArm  4.87714 0.817457 2.28645
RightHand  -1.65429 6.0852 -17.0148
LeftUpLeg  5.2223 4.85676 1.76135
LeftLeg  1.94248 14.8778 -3.94272
LeftFoot  -2.82661 -0.124649 2.00685
LeftToes  1.06245e-005 4.65855e-005 -8.18504e-006
11
root  2.9524 40.9738 -0.155728 -144.708 -87.8457 140.48
RightUpLeg  3.13115 -8.94966 -5.01139
RightLeg  6.08441 -12.9112 3.3682
RightFoot  -3.77729 0.147374 -2.73357
RightToes  0.00048216 0.542163 -0.142577
Spine  3.80135 0.810903 -0.338111
Spine1  3.21998 1.03575 -0.242474
HEad  5.53608 -10.921 -0.610451
LeftShoulder1  1.26461 -3.44556 -10.9255
LeftArm  -19.3295 15.6009 -10.1485
LeftForeArm  8.22651 -1.78094 -0.505802
LeftHand  -0.25398 0.0180481 5.50724
RightShoulder  0.953962 1.87233 10.5178
RightArm  -21.0742 -3.34703 5.14642
RightForeArm  5.08107 0.822097 2.26551
RightHand  -1.62255 6.00617 -16.8098
LeftUpLeg  5.19661 4.83869 1.73162
LeftLeg  1.97536 14.9199 -3.93133
LeftFoot  -2.8571 -0.126467 2.03513
LeftToes  1.06245e-005 4.65855e-005 -8.18504e-006
